<?xml version="1.0" standalone="no"?>
<!DOCTYPE svg PUBLIC "-//W3C//DTD SVG 20010904//EN"
 "http://www.w3.org/TR/2001/REC-SVG-20010904/DTD/svg10.dtd">
<svg version="1.0" xmlns="http://www.w3.org/2000/svg"
 width="1200.000000pt" height="210.000000pt" viewBox="0 0 1200.000000 210.000000"
 preserveAspectRatio="xMidYMid meet">

<g transform="translate(0.000000,210.000000) scale(0.100000,-0.100000)"
fill="#000000" stroke="none">
<path d="M1153 1647 c-105 -183 -195 -340 -198 -349 -6 -16 0 -18 46 -18 114
0 255 -34 369 -90 228 -110 353 -293 320 -469 -5 -30 -10 -57 -10 -59 0 -3
-26 23 -58 57 -48 51 -63 61 -83 57 -13 -3 -116 -28 -229 -55 -240 -58 -351
-85 -590 -141 -96 -22 -185 -46 -198 -53 -14 -7 -62 -79 -121 -182 l-98 -170
524 -3 c289 -1 758 -1 1043 0 l518 3 -515 890 c-283 490 -517 895 -521 902 -4
7 -86 -124 -199 -320z"/>
<path d="M7423 1775 c-77 -33 -95 -138 -35 -198 26 -26 40 -31 91 -35 60 -4
62 -4 101 36 35 34 40 46 40 84 0 98 -100 155 -197 113z"/>
<path d="M3315 1668 c-3 -7 -4 -236 -3 -508 l3 -495 140 0 140 0 0 505 0 505
-138 3 c-104 2 -139 -1 -142 -10z"/>
<path d="M4390 1170 l0 -510 140 0 140 0 0 263 0 264 25 11 c35 16 161 16 172
0 4 -7 10 -130 13 -273 l5 -260 135 0 135 0 3 270 c1 149 -2 308 -7 355 -12
100 -28 120 -118 146 -107 31 -225 5 -317 -71 -24 -19 -45 -35 -47 -35 -2 0
-3 79 -1 175 l3 175 -141 0 -140 0 0 -510z"/>
<path d="M9850 1560 l0 -120 -73 6 c-92 8 -234 -11 -289 -40 -76 -38 -122
-132 -140 -286 -26 -224 33 -383 164 -440 112 -49 242 -22 324 66 l43 45 7
-48 c12 -85 11 -84 132 -81 l107 3 3 508 2 507 -140 0 -140 0 0 -120z m-22
-306 c22 -6 22 -8 22 -184 l0 -177 -31 -7 c-87 -17 -148 3 -169 54 -15 35 -17
136 -6 223 10 79 29 97 104 97 31 0 67 -3 80 -6z"/>
<path d="M8504 1531 c-40 -96 -47 -101 -130 -101 l-34 0 0 -75 0 -75 59 0 59
0 4 -242 c4 -260 7 -276 60 -325 59 -56 188 -73 326 -44 l62 14 0 47 c0 26 -3
68 -6 94 l-7 46 -61 0 c-35 0 -67 5 -74 12 -9 9 -12 68 -12 205 l0 193 85 0
85 0 0 80 0 80 -85 0 -85 0 0 84 c0 67 -3 85 -16 90 -9 3 -55 6 -104 6 l-88 0
-38 -89z"/>
<path d="M2735 1436 c-49 -8 -109 -17 -133 -21 l-43 -8 6 -56 c3 -31 8 -72 11
-92 l5 -35 177 0 177 1 3 -50 3 -51 -136 -11 c-163 -14 -229 -39 -273 -105
-34 -52 -42 -148 -18 -213 18 -46 70 -99 115 -116 114 -44 215 -28 290 47 24
24 45 43 46 42 2 -2 9 -25 17 -53 l14 -50 114 0 115 0 -3 285 c-2 157 -8 303
-14 325 -16 67 -51 110 -114 141 -49 24 -70 28 -163 30 -58 2 -146 -3 -196
-10z m203 -513 c3 -69 10 -61 -72 -78 -28 -6 -77 10 -88 28 -12 19 -9 72 5 89
14 19 45 26 107 24 l45 -1 3 -62z"/>
<path d="M3937 1434 c-43 -8 -103 -26 -133 -40 -45 -21 -59 -34 -79 -75 -54
-105 -76 -307 -46 -426 27 -108 103 -188 210 -220 73 -22 248 -21 356 2 44 9
83 18 86 21 3 2 2 32 -3 66 -16 117 -1 105 -145 110 -145 4 -181 17 -210 71
-20 39 -21 181 -1 242 l13 40 152 3 c104 2 154 6 161 15 9 11 36 177 30 183
-2 1 -38 7 -81 13 -103 14 -213 13 -310 -5z"/>
<path d="M5476 1434 c-143 -32 -192 -71 -227 -182 -27 -86 -37 -258 -19 -333
44 -185 170 -264 415 -262 117 2 259 27 290 53 9 7 10 26 3 67 -16 113 3 102
-166 96 -164 -7 -208 2 -242 44 -11 14 -20 39 -20 54 l0 29 231 0 232 0 -7 83
c-17 212 -55 287 -170 338 -65 29 -222 35 -320 13z m200 -196 c13 -13 26 -42
30 -65 l7 -43 -108 0 -108 0 7 38 c3 20 6 45 6 55 0 47 123 58 166 15z"/>
<path d="M6477 1439 c-55 -13 -107 -42 -150 -84 -21 -20 -41 -35 -44 -31 -3 3
-11 29 -18 58 l-11 53 -117 3 -117 3 2 -388 3 -388 138 -3 137 -3 0 264 c0
234 2 266 17 278 10 9 42 14 91 14 72 0 76 -1 83 -25 4 -14 7 -139 8 -278 l1
-253 138 3 137 3 3 266 2 266 26 11 c35 17 139 15 153 -1 7 -9 12 -103 13
-278 l3 -264 135 0 135 0 0 342 c0 329 -1 343 -21 370 -69 95 -289 94 -402 -2
-40 -35 -62 -39 -62 -11 0 23 -44 54 -99 70 -59 17 -124 19 -184 5z"/>
<path d="M7884 1436 c-93 -18 -107 -27 -134 -83 -35 -72 -39 -187 -10 -247 38
-80 88 -114 244 -162 62 -20 84 -40 73 -68 -5 -13 -22 -16 -89 -16 -46 1 -114
5 -153 10 -38 5 -71 7 -73 5 -7 -7 -31 -129 -32 -157 0 -33 25 -41 175 -58
174 -19 315 11 389 83 50 48 66 92 66 182 0 111 -57 170 -212 220 -125 40
-137 46 -143 67 -12 34 12 48 84 48 36 0 97 -5 135 -10 39 -6 73 -7 78 -2 5 5
11 47 15 94 l6 85 -39 7 c-84 14 -309 16 -380 2z"/>
<path d="M10455 1434 c-112 -24 -167 -55 -198 -112 -57 -105 -77 -305 -42
-428 50 -180 219 -263 482 -234 57 6 129 19 161 29 l57 17 -1 52 c-1 28 -5 67
-8 85 l-6 34 -173 -1 c-151 -1 -175 1 -199 17 -28 19 -54 79 -43 97 4 6 90 10
235 10 l228 0 -5 78 c-7 115 -20 182 -46 232 -26 51 -90 104 -145 120 -62 19
-219 21 -297 4z m202 -199 c16 -18 23 -39 23 -66 l0 -39 -100 0 -100 0 0 33
c0 55 12 79 44 93 45 21 106 11 133 -21z"/>
<path d="M7342 1053 l3 -388 140 0 140 0 3 388 2 387 -145 0 -145 0 2 -387z"/>
<path d="M10930 1438 c0 -2 53 -176 118 -388 l117 -385 192 -3 c175 -2 193 -1
201 15 9 17 232 746 232 758 0 3 -66 4 -147 3 l-147 -3 -60 -294 c-34 -162
-66 -296 -72 -298 -13 -4 -19 20 -90 365 l-47 232 -149 0 c-81 0 -148 -1 -148
-2z"/>
<path d="M1072 1131 c-57 -10 -74 -27 -47 -48 62 -47 157 -57 214 -22 l34 21
-26 25 c-28 29 -95 38 -175 24z"/>
<path d="M9040 958 c-56 -39 -75 -72 -75 -136 0 -39 7 -68 21 -92 57 -99 211
-99 268 0 29 48 28 139 0 177 -35 48 -82 73 -134 73 -32 0 -57 -7 -80 -22z"/>
</g>
</svg>
